# Created by MKDS Course Modifier
mtllib lab.mtl
g polygon0
usemtl lambert1
v 48 56 21
v -48 56 21
v -48 64 21
v 48 64 21
vn 0 0 -1
vn 0 0 -1
vn 0 0 -1
vn 0 0 -1
vt NaN 0
vt NaN 0
vt NaN 0
vt NaN 0
f 1/1/1 2/2/2 3/3/3 4/4/4
g polygon1
usemtl mt_okl01
v -48 56 21
v 48 56 21
v 48 56 -26
v -48 56 -26
vn 0 0.9980469 0
vn 0 0.9980469 0
vn 0 0.9980469 0
vn 0 0.9980469 0
vt -5.882813 -3.882813
vt 6.117188 -3.882813
vt 6.117188 1.992188
vt -5.882813 1.992188
f 5/5/5 6/6/6 7/7/7 8/8/8
g polygon2
usemtl h_mado
v 17 14.63672 24.5
v 26 14.63672 24.5
v 26 27.63672 24.5
v 17 27.63672 24.5
v 28 14.63672 24.5
v 37 14.63672 24.5
v 37 27.63672 24.5
v 28 27.63672 24.5
v -37 14.63672 24.5
v -28 14.63672 24.5
v -28 27.63672 24.5
v -37 27.63672 24.5
v -26 14.63672 24.5
v -17 14.63672 24.5
v -17 27.63672 24.5
v -26 27.63672 24.5
vn 0 0 0.9980469
vn 0 0 0.9980469
vn 0 0 0.9980469
vn 0 0 0.9980469
vn 0 0 0.9980469
vn 0 0 0.9980469
vn 0 0 0.9980469
vn 0 0 0.9980469
vn 0 0 0.9980469
vn 0 0 0.9980469
vn 0 0 0.9980469
vn 0 0 0.9980469
vn 0 0 0.9980469
vn 0 0 0.9980469
vn 0 0 0.9980469
vn 0 0 0.9980469
vt 0.21875 -0.90625
vt 0.78125 -0.90625
vt 0.78125 -0.09375
vt 0.21875 -0.09375
vt 0.21875 -0.90625
vt 0.78125 -0.90625
vt 0.78125 -0.09375
vt 0.21875 -0.09375
vt 0.21875 -0.90625
vt 0.78125 -0.90625
vt 0.78125 -0.09375
vt 0.21875 -0.09375
vt 0.21875 -0.90625
vt 0.78125 -0.90625
vt 0.78125 -0.09375
vt 0.21875 -0.09375
f 9/9/9 10/10/10 11/11/11 12/12/12
f 13/13/13 14/14/14 15/15/15 16/16/16
f 17/17/17 18/18/18 19/19/19 20/20/20
f 21/21/21 22/22/22 23/23/23 24/24/24
g polygon3
usemtl mt_okl02
v -24 33 25
v -8 33 25
v -8 49 25
v -24 49 25
v 8 33 25
v 24 33 25
v 24 49 25
v 8 49 25
v 26 33 25
v 42 33 25
v 42 49 25
v 26 49 25
v -42 33 25
v -26 33 25
v -26 49 25
v -42 49 25
vn 0 0 0.9980469
vn 0 0 0.9980469
vn 0 0 0.9980469
vn 0 0 0.9980469
vn 0 0 0.9980469
vn 0 0 0.9980469
vn 0 0 0.9980469
vn 0 0 0.9980469
vn 0 0 0.9980469
vn 0 0 0.9980469
vn 0 0 0.9980469
vn 0 0 0.9980469
vn 0 0 0.9980469
vn 0 0 0.9980469
vn 0 0 0.9980469
vn 0 0 0.9980469
vt 0 -0.9375
vt 0.9375 -0.9375
vt 0.9375 0.0625
vt 0 0.0625
vt 0 -0.9375
vt 0.9375 -0.9375
vt 0.9375 0.0625
vt 0 0.0625
vt 0 -0.9375
vt 0.9375 -0.9375
vt 0.9375 0.0625
vt 0 0.0625
vt 0 -0.9375
vt 0.9375 -0.9375
vt 0.9375 0.0625
vt 0 0.0625
f 25/25/25 26/26/26 27/27/27 28/28/28
f 29/29/29 30/30/30 31/31/31 32/32/32
f 33/33/33 34/34/34 35/35/35 36/36/36
f 37/37/37 38/38/38 39/39/39 40/40/40
g polygon4
usemtl mt_okl06
v 44 40 23
v 44 56 23
v 10 40 23
v 10 56 23
v -10 40 23
v -10 56 23
v -44 40 23
v -44 56 23
vn 0 0 0.9980469
vn 0 0 0.9980469
vn 0 0 0.9980469
vn 0 0 0.9980469
vn 0 0 0.9980469
vn 0 0 0.9980469
vn 0 0 0.9980469
vn 0 0 0.9980469
vt 3.75 -0.90625
vt 3.75 0.08984375
vt 1.625 -0.90625
vt 1.625 0.08984375
vt 0.375 -0.90625
vt 0.375 0.08984375
vt -1.75 -0.90625
vt -1.75 0.08984375
f 41/41/41 42/42/42 43/43/43
f 42/42/42 44/44/44 43/43/43
f 43/43/43 44/44/44 45/45/45
f 44/44/44 46/46/46 45/45/45
f 45/45/45 46/46/46 47/47/47
f 46/46/46 48/48/48 47/47/47
v -52 8 15
v -52 56 15
v -52 56 -20
v -52 8 -20
v 52 56 15
v 52 8 15
v 52 8 -20
v 52 56 -20
vn -1 0 0
vn -1 0 0
vn -1 0 0
vn -1 0 0
vn 0.9980469 0 0
vn 0.9980469 0 0
vn 0.9980469 0 0
vn 0.9980469 0 0
vt -0.59375 -1.914063
vt -0.59375 1.085938
vt 1.59375 1.085938
vt 1.59375 -1.914063
vt -0.59375 1.085938
vt -0.59375 -1.914063
vt 1.59375 -1.914063
vt 1.59375 1.085938
f 49/49/49 50/50/50 51/51/51 52/52/52
f 53/53/53 54/54/54 55/55/55 56/56/56
g polygon5
usemtl h_kage
v -42 1 36
v 62 1 36
v -54 1 24
v 62 1 24
v -54 1 -24
v 62 1 -24
v -54 1 -34
v 52.80469 1 -34
vn 0 0.9980469 0
vn 0 0.9980469 0
vn 0 0.9980469 0
vn 0 0.9980469 0
vn 0 0.9980469 0
vn 0 0.9980469 0
vn 0 0.9980469 0
vn 0 0.9980469 0
vt 0 -1
vt 1 -1
vt 0 -0.8320313
vt 1 -0.8320313
vt 0 -0.140625
vt 1 -0.140625
vt 0 0
vt 1 0
f 57/57/57 58/58/58 59/59/59
f 58/58/58 60/60/60 59/59/59
f 59/59/59 60/60/60 61/61/61
f 60/60/60 62/62/62 61/61/61
f 61/61/61 62/62/62 63/63/63
f 62/62/62 64/64/64 63/63/63
v 20.06641 58 13.62891
v 48 58 13.62891
v 15.93359 58 9.5
v 48 58 9.5
v 15.93359 58 -17
v 48 58 -17
vn 0 0.9980469 0
vn 0 0.9980469 0
vn 0 0.9980469 0
vn 0 0.9980469 0
vn 0 0.9980469 0
vn 0 0.9980469 0
vt 0 -1
vt 1 -1
vt 0 -0.8320313
vt 1 -0.8320313
vt 0 0
vt 1 0
f 65/65/65 66/66/66 67/67/67
f 66/66/66 68/68/68 67/67/67
f 67/67/67 68/68/68 69/69/69
f 68/68/68 70/70/70 69/69/69
v -48 58 21
v -40 58 21
v -48 58 -17
v -40 58 -17
v -48 58 -26
v -40 58 -26
vn 0 0.9980469 0
vn 0 0.9980469 0
vn 0 0.9980469 0
vn 0 0.9980469 0
vn 0 0.9980469 0
vn 0 0.9980469 0
vt 0 -0.8320313
vt 0.1679688 -0.8320313
vt 0 -0.140625
vt 0.1679688 -0.140625
vt 0 0
vt 0.1679688 0
f 71/71/71 72/72/72 73/73/73
f 72/72/72 74/74/74 73/73/73
f 73/73/73 74/74/74 75/75/75
f 74/74/74 76/76/76 75/75/75
v -40 58 -17
v 48 58 -17
v 48 58 -26
v -40 58 -26
vn 0 0.9980469 0
vn 0 0.9980469 0
vn 0 0.9980469 0
vn 0 0.9980469 0
vt 0.1679688 -0.140625
vt 1 -0.140625
vt 1 0
vt 0.1679688 0
f 77/77/77 78/78/78 79/79/79 80/80/80
g polygon6
usemtl mt_okl07
v 52 8 -28
v 52 56 -28
v 52 56 -20
v 52 8 -20
v -52 8 15
v -52 8 23
v -52 40 23
v -52 56 15
v -52 56 -28
v -52 8 -28
v -52 8 -20
v -52 56 -20
v 52 40 23
v 52 8 23
v 52 8 15
v 52 56 15
v -52 56 23
v -52 40 23
v -44 40 23
v -44 56 23
v 52 56 23
v 44 56 23
v 44 40 23
v 52 40 23
vn 0.9980469 0 0
vn 0.9980469 0 0
vn 0.9980469 0 0
vn 0.9980469 0 0
vn -1 0 0
vn -1 0 0
vn -1 0 0
vn -1 0 0
vn -1 0 0
vn -1 0 0
vn -1 0 0
vn -1 0 0
vn 0.9980469 0 0
vn 0.9980469 0 0
vn 0.9980469 0 0
vn 0.9980469 0 0
vn 0 0 0.9980469
vn 0 0 0.9980469
vn 0 0 0.9980469
vn 0 0 0.9980469
vn 0 0 0.9980469
vn 0 0 0.9980469
vn 0 0 0.9980469
vn 0 0 0.9980469
vt 0.96875 -2
vt 0.96875 1
vt 0.0703125 1
vt 0.0703125 -2
vt 0.9296875 -2
vt 0.0703125 -2
vt 0.0703125 0
vt 0.9296875 1
vt 0.96875 1
vt 0.96875 -2
vt 0.0703125 -2
vt 0.0703125 1
vt 0.0703125 0
vt 0.0703125 -2
vt 0.9296875 -2
vt 0.9296875 1
vt 0.0625 1
vt 0.0625 0.00390625
vt 0.9375 0.00390625
vt 0.9375 1
vt 0.0625 1
vt 0.9375 1
vt 0.9375 0.00390625
vt 0.0625 0.00390625
f 81/81/81 82/82/82 83/83/83 84/84/84
f 85/85/85 86/86/86 87/87/87 88/88/88
f 89/89/89 90/90/90 91/91/91 92/92/92
f 93/93/93 94/94/94 95/95/95 96/96/96
f 97/97/97 98/98/98 99/99/99 100/100/100
f 101/101/101 102/102/102 103/103/103 104/104/104
v -52 56 15
v -52 40 23
v -52 56 23
v 52 40 23
v 52 56 15
v 52 56 23
vn -1 0 0
vn -1 0 0
vn -1 0 0
vn 0.9980469 0 0
vn 0.9980469 0 0
vn 0.9980469 0 0
vt 0.9296875 1
vt 0.0703125 0
vt 0.0703125 1
vt 0.0703125 0
vt 0.9296875 1
vt 0.0703125 1
f 105/105/105 106/106/106 107/107/107
f 108/108/108 109/109/109 110/110/110
g polygon7
usemtl mt_okl03
v 42 8 23
v 44 40 23
v 10 28 23
v 10 40 23
v -10 28 23
v -10 40 23
v -42 8 23
v -44 40 23
vn 0 0 0.9980469
vn 0 0 0.9980469
vn 0 0 0.9980469
vn 0 0 0.9980469
vn 0 0 0.9980469
vn 0 0 0.9980469
vn 0 0 0.9980469
vn 0 0 0.9980469
vt 3.625 -0.9550781
vt 3.75 0.046875
vt 1.625 -0.3300781
vt 1.625 0.046875
vt 0.375 -0.3300781
vt 0.375 0.046875
vt -1.625 -0.9550781
vt -1.75 0.046875
f 111/111/111 112/112/112 113/113/113
f 112/112/112 114/114/114 113/113/113
f 113/113/113 114/114/114 115/115/115
f 114/114/114 116/116/116 115/115/115
f 115/115/115 116/116/116 117/117/117
f 116/116/116 118/118/118 117/117/117
v 42 8 23
v 10 28 23
v 12.00391 8 23
v 10 8 23
vn 0 0 0.9980469
vn 0 0 0.9980469
vn 0 0 0.9980469
vn 0 0 0.9980469
vt 3.625 -0.9550781
vt 1.625 -0.3300781
vt 1.75 -0.9550781
vt 1.625 -0.9550781
f 119/119/119 120/120/120 121/121/121
f 120/120/120 122/122/122 121/121/121
v -10 8 23
v -10 28 23
v -12.00391 8 23
v -42 8 23
vn 0 0 0.9980469
vn 0 0 0.9980469
vn 0 0 0.9980469
vn 0 0 0.9980469
vt 0.375 -0.9550781
vt 0.375 -0.3300781
vt 0.25 -0.9550781
vt -1.625 -0.9550781
f 123/123/123 124/124/124 125/125/125
f 124/124/124 126/126/126 125/125/125
v -42 8 23
v -44 40 23
v -44 8 23
v 42 8 23
v 44 8 23
v 44 40 23
vn 0 0 0.9980469
vn 0 0 0.9980469
vn 0 0 0.9980469
vn 0 0 0.9980469
vn 0 0 0.9980469
vn 0 0 0.9980469
vt -1.625 -0.9550781
vt -1.75 0.046875
vt -1.75 -0.9550781
vt 3.625 -0.9550781
vt 3.75 -0.9550781
vt 3.75 0.046875
f 127/127/127 128/128/128 129/129/129
f 130/130/130 131/131/131 132/132/132
g polygon8
usemtl h_in
v 10 2 -2
v 10 2 14.60938
v 10 8 23
v 10 2 21
v 10 2 23
vn -1 0 0
vn -1 0 0
vn -1 0 0
vn -1 0 0
vn -1 0 0
vt 0.5625 -0.25
vt 0.5625 -0.25
vt 0.5625 -0.25
vt 0.5625 -0.25
vt 0.5625 -0.25
f 133/133/133 134/134/134 135/135/135
f 134/134/134 136/136/136 135/135/135
f 135/135/135 136/136/136 137/137/137
v -10 2 23
v -10 2 21
v -10 8 23
v -10 2 -2
vn 0.9980469 0 0
vn 0.9980469 0 0
vn 0.9980469 0 0
vn 0.9980469 0 0
vt 0.5625 -0.25
vt 0.5625 -0.25
vt 0.5625 -0.25
vt 0.5625 -0.25
f 138/138/138 139/139/139 140/140/140
f 139/139/139 141/141/141 140/140/140
v -10 2 21
v -4.355469 2 14.60938
v -10 2 -2
v 10 2 -2
vn 0 0.9980469 0
vn 0 0.9980469 0
vn 0 0.9980469 0
vn 0 0.9980469 0
vt 0.5625 -0.25
vt 0.5625 -0.25
vt 0.5625 -0.25
vt 0.5546875 -0.25
f 142/142/142 143/143/143 144/144/144
f 143/143/143 145/145/145 144/144/144
v 10 28 -2
v 10 2 -2
v 10 8 23
v 10 28 23
v 10 2 14.60938
v -4.355469 2 14.60938
v -10 2 21
v 10 2 21
v -10 2 -2
v -10 28 -2
v -10 28 23
v -10 8 23
v -10 2 -2
v 10 2 -2
v 10 28 -2
v -10 28 -2
vn -1 0 0
vn -1 0 0
vn -1 0 0
vn -1 0 0
vn 0 0.9980469 0
vn 0 0.9980469 0
vn 0 0.9980469 0
vn 0 0.9980469 0
vn 0.9980469 0 0
vn 0.9980469 0 0
vn 0.9980469 0 0
vn 0.9980469 0 0
vn 0 0 0.9980469
vn 0 0 0.9980469
vn 0 0 0.9980469
vn 0 0 0.9980469
vt 0.5625 -0.25
vt 0.5625 -0.25
vt 0.5625 -0.25
vt 0.5625 -0.25
vt 0.8359375 -0.75
vt 0.84375 -0.75
vt 0.8515625 -0.75
vt 0.8359375 -0.75
vt 0.5625 -0.25
vt 0.5625 -0.25
vt 0.5625 -0.25
vt 0.5625 -0.25
vt 0.5625 -0.25
vt 0.5625 -0.25
vt 0.5625 -0.25
vt 0.5625 -0.25
f 146/146/146 147/147/147 148/148/148 149/149/149
f 150/150/150 151/151/151 152/152/152 153/153/153
f 154/154/154 155/155/155 156/156/156 157/157/157
f 158/158/158 159/159/159 160/160/160 161/161/161
v 10 2 -2
v -4.355469 2 14.60938
v 10 2 14.60938
vn 0 0.9980469 0
vn 0 0.9980469 0
vn 0 0.9980469 0
vt 0.5546875 -0.25
vt 0.5625 -0.25
vt 0.5546875 -0.25
f 162/162/162 163/163/163 164/164/164
g polygon9
usemtl mt_okl05
v 13 28.63672 24
v 13 28.63672 27
v 27 28.63672 24
v 27 28.63672 27
v 41 28.63672 24
v 41 28.63672 27
vn 0 0.9980469 0
vn 0 0.9980469 0
vn 0 0.9980469 0
vn 0 0.9980469 0
vn 0 0.9980469 0
vn 0 0.9980469 0
vt 0.78125 -0.2578125
vt 0.84375 -0.2578125
vt 0.78125 -0.21875
vt 0.84375 -0.21875
vt 0.78125 -0.2578125
vt 0.84375 -0.2578125
f 165/165/165 166/166/166 167/167/167
f 166/166/166 168/168/168 167/167/167
f 167/167/167 168/168/168 169/169/169
f 168/168/168 170/170/170 169/169/169
v 13 28.63672 27
v 13 26.63672 27
v 27 28.63672 27
v 27 26.63672 27
v 41 28.63672 27
v 41 26.63672 27
vn 0 0 0.9980469
vn 0 0 0.9980469
vn 0 0 0.9980469
vn 0 0 0.9980469
vn 0 0 0.9980469
vn 0 0 0.9980469
vt 0.90625 -0.2578125
vt 0.96875 -0.2578125
vt 0.90625 -0.21875
vt 0.96875 -0.21875
vt 0.90625 -0.2578125
vt 0.96875 -0.2578125
f 171/171/171 172/172/172 173/173/173
f 172/172/172 174/174/174 173/173/173
f 173/173/173 174/174/174 175/175/175
f 174/174/174 176/176/176 175/175/175
v -13 28.63672 27
v -13 28.63672 24
v -27 28.63672 27
v -27 28.63672 24
v -41 28.63672 27
v -41 28.63672 24
vn 0 0.9980469 0
vn 0 0.9980469 0
vn 0 0.9980469 0
vn 0 0.9980469 0
vn 0 0.9980469 0
vn 0 0.9980469 0
vt 0.84375 -0.2578125
vt 0.78125 -0.2578125
vt 0.84375 -0.21875
vt 0.78125 -0.21875
vt 0.84375 -0.2578125
vt 0.78125 -0.2578125
f 177/177/177 178/178/178 179/179/179
f 178/178/178 180/180/180 179/179/179
f 179/179/179 180/180/180 181/181/181
f 180/180/180 182/182/182 181/181/181
v -13 26.63672 27
v -13 28.63672 27
v -27 26.63672 27
v -27 28.63672 27
v -41 26.63672 27
v -41 28.63672 27
vn 0 0 0.9980469
vn 0 0 0.9980469
vn 0 0 0.9980469
vn 0 0 0.9980469
vn 0 0 0.9980469
vn 0 0 0.9980469
vt 0.96875 -0.2578125
vt 0.90625 -0.2578125
vt 0.96875 -0.21875
vt 0.90625 -0.21875
vt 0.96875 -0.2578125
vt 0.90625 -0.2578125
f 183/183/183 184/184/184 185/185/185
f 184/184/184 186/186/186 185/185/185
f 185/185/185 186/186/186 187/187/187
f 186/186/186 188/188/188 187/187/187
v -13 26.63672 24
v -13 28.63672 24
v -13 28.63672 27
v -13 26.63672 27
v -41 26.63672 27
v -41 28.63672 27
v -41 28.63672 24
v -41 26.63672 24
v 41 26.63672 24
v 41 28.63672 24
v 41 28.63672 27
v 41 26.63672 27
v 37 65 -10.5
v 39 65 -8.332031
v 43 59 -12.5
v 41 59 -14.5
v 23 65 -8.667969
v 25 65 -10.5
v 21 59 -14.5
v 19 59 -12.5
v 37 65 5.5
v 39 65 3.5
v 39 81 3.5
v 37 81 5.5
v 37 65 5.5
v 41 59 9.5
v 43 59 7.5
v 39 65 3.5
v 23 65 3.5
v 25 65 5.5
v 25 81 5.5
v 23 81 3.5
v 23 65 3.5
v 19 59 7.5
v 21 59 9.5
v 25 65 5.5
v 23 81 -8.332031
v 23 65 -8.667969
v 23 65 3.5
v 23 81 3.5
v 13 26.63672 27
v 13 28.63672 27
v 13 28.63672 24
v 13 26.63672 24
v 19 59 7.5
v 23 65 3.5
v 23 65 -8.667969
v 19 59 -12.5
v 41 59 9.5
v 37 65 5.5
v 25 65 5.5
v 21 59 9.5
v 43 59 -12.5
v 39 65 -8.332031
v 39 65 3.5
v 43 59 7.5
v 21 59 -14.5
v 25 65 -10.5
v 37 65 -10.5
v 41 59 -14.5
v 39 81 3.5
v 39 65 3.5
v 39 65 -8.332031
v 39 81 -8.332031
v 25 81 5.5
v 25 65 5.5
v 37 65 5.5
v 37 81 5.5
vn 0.9980469 0 0
vn 0.9980469 0 0
vn 0.9980469 0 0
vn 0.9980469 0 0
vn -1 0 0
vn -1 0 0
vn -1 0 0
vn -1 0 0
vn 0.9980469 0 0
vn 0.9980469 0 0
vn 0.9980469 0 0
vn 0.9980469 0 0
vn 0.5214844 0.6894531 -0.5019531
vn 0.5214844 0.6894531 -0.5019531
vn 0.5214844 0.6894531 -0.5019531
vn 0.5214844 0.6894531 -0.5019531
vn -0.5058594 0.6816406 -0.5273438
vn -0.5058594 0.6816406 -0.5273438
vn -0.5058594 0.6816406 -0.5273438
vn -0.5058594 0.6816406 -0.5273438
vn 0.7070313 0 0.7070313
vn 0.7070313 0 0.7070313
vn 0.7070313 0 0.7070313
vn 0.7070313 0 0.7070313
vn 0.5136719 0.6855469 0.5136719
vn 0.5136719 0.6855469 0.5136719
vn 0.5136719 0.6855469 0.5136719
vn 0.5136719 0.6855469 0.5136719
vn -0.7070313 0 0.7070313
vn -0.7070313 0 0.7070313
vn -0.7070313 0 0.7070313
vn -0.7070313 0 0.7070313
vn -0.5136719 0.6855469 0.5136719
vn -0.5136719 0.6855469 0.5136719
vn -0.5136719 0.6855469 0.5136719
vn -0.5136719 0.6855469 0.5136719
vn -1 0 0
vn -1 0 0
vn -1 0 0
vn -1 0 0
vn -1 0 0
vn -1 0 0
vn -1 0 0
vn -1 0 0
vn -0.8320313 0.5546875 0
vn -0.8320313 0.5546875 0
vn -0.8320313 0.5546875 0
vn -0.8320313 0.5546875 0
vn 0 0.5546875 0.8320313
vn 0 0.5546875 0.8320313
vn 0 0.5546875 0.8320313
vn 0 0.5546875 0.8320313
vn 0.8320313 0.5546875 0
vn 0.8320313 0.5546875 0
vn 0.8320313 0.5546875 0
vn 0.8320313 0.5546875 0
vn 0 0.5546875 -0.8320313
vn 0 0.5546875 -0.8320313
vn 0 0.5546875 -0.8320313
vn 0 0.5546875 -0.8320313
vn 0.9980469 0 0
vn 0.9980469 0 0
vn 0.9980469 0 0
vn 0.9980469 0 0
vn 0 0 0.9980469
vn 0 0 0.9980469
vn 0 0 0.9980469
vn 0 0 0.9980469
vt 0.078125 -0.07421875
vt 0.09375 -0.07421875
vt 0.09375 -0.05859375
vt 0.078125 -0.05859375
vt 0.078125 -0.07421875
vt 0.09375 -0.07421875
vt 0.09375 -0.05859375
vt 0.078125 -0.05859375
vt 0.078125 -0.07421875
vt 0.09375 -0.07421875
vt 0.09375 -0.05859375
vt 0.078125 -0.05859375
vt 0.59375 -0.15625
vt 0.59375 -0.03125
vt 0.96875 -0.03125
vt 0.96875 -0.15625
vt 0.59375 -0.03125
vt 0.59375 -0.15625
vt 0.96875 -0.15625
vt 0.96875 -0.03125
vt 0.40625 -0.96875
vt 0.40625 -0.96875
vt 0.40625 -0.03125
vt 0.40625 -0.03125
vt 0.59375 -0.15625
vt 0.96875 -0.15625
vt 0.96875 -0.03125
vt 0.59375 -0.03125
vt 0.40625 -0.96875
vt 0.40625 -0.96875
vt 0.40625 -0.03125
vt 0.40625 -0.03125
vt 0.59375 -0.03125
vt 0.96875 -0.03125
vt 0.96875 -0.15625
vt 0.59375 -0.15625
vt 0.140625 -0.03125
vt 0.140625 -0.96875
vt 0.04296875 -0.96875
vt 0.04296875 -0.03125
vt 0.078125 -0.07421875
vt 0.09375 -0.07421875
vt 0.09375 -0.05859375
vt 0.078125 -0.05859375
vt 0.96875 -0.9257813
vt 0.59375 -0.9179688
vt 0.59375 -0.8867188
vt 0.96875 -0.875
vt 0.96875 -0.6875
vt 0.59375 -0.703125
vt 0.59375 -0.75
vt 0.96875 -0.765625
vt 0.96875 -0.875
vt 0.59375 -0.8867188
vt 0.59375 -0.9179688
vt 0.96875 -0.9257813
vt 0.96875 -0.6875
vt 0.59375 -0.703125
vt 0.59375 -0.75
vt 0.96875 -0.765625
vt 0.04296875 -0.03125
vt 0.04296875 -0.96875
vt 0.140625 -0.96875
vt 0.140625 -0.03125
vt 0.2460938 -0.03125
vt 0.2460938 -0.96875
vt 0.3164063 -0.96875
vt 0.3164063 -0.03125
f 189/189/189 190/190/190 191/191/191 192/192/192
f 193/193/193 194/194/194 195/195/195 196/196/196
f 197/197/197 198/198/198 199/199/199 200/200/200
f 201/201/201 202/202/202 203/203/203 204/204/204
f 205/205/205 206/206/206 207/207/207 208/208/208
f 209/209/209 210/210/210 211/211/211 212/212/212
f 213/213/213 214/214/214 215/215/215 216/216/216
f 217/217/217 218/218/218 219/219/219 220/220/220
f 221/221/221 222/222/222 223/223/223 224/224/224
f 225/225/225 226/226/226 227/227/227 228/228/228
f 229/229/229 230/230/230 231/231/231 232/232/232
f 233/233/233 234/234/234 235/235/235 236/236/236
f 237/237/237 238/238/238 239/239/239 240/240/240
f 241/241/241 242/242/242 243/243/243 244/244/244
f 245/245/245 246/246/246 247/247/247 248/248/248
f 249/249/249 250/250/250 251/251/251 252/252/252
f 253/253/253 254/254/254 255/255/255 256/256/256
v 31 81 -2.488281
v 25 81 5.5
v 37 81 5.5
v 25 81 -10.5
v 31 81 -2.488281
v 37 81 -10.5
v 37 81 -10.5
v 31 81 -2.488281
v 39 81 -8.332031
v 31 81 -2.488281
v 37 81 5.5
v 39 81 3.5
v 23 81 -8.332031
v 31 81 -2.488281
v 25 81 -10.5
v 31 81 -2.488281
v 23 81 3.5
v 25 81 5.5
v 23 81 -8.332031
v 23 81 3.5
v 31 81 -2.488281
v 39 81 -8.332031
v 31 81 -2.488281
v 39 81 3.5
vn 0 0.9980469 0
vn 0 0.9980469 0
vn 0 0.9980469 0
vn 0 0.9980469 0
vn 0 0.9980469 0
vn 0 0.9980469 0
vn 0 0.9980469 0
vn 0 0.9980469 0
vn 0 0.9980469 0
vn 0 0.9980469 0
vn 0 0.9980469 0
vn 0 0.9980469 0
vn 0 0.9980469 0
vn 0 0.9980469 0
vn 0 0.9980469 0
vn 0 0.9980469 0
vn 0 0.9980469 0
vn 0 0.9980469 0
vn 0 0.9980469 0
vn 0 0.9980469 0
vn 0 0.9980469 0
vn 0 0.9980469 0
vn 0 0.9980469 0
vn 0 0.9980469 0
vt 0.5 -0.3984375
vt 0.4882813 -0.9609375
vt 0.515625 -0.9609375
vt 0.515625 -0.9609375
vt 0.5 -0.3984375
vt 0.4882813 -0.9609375
vt 0.515625 -0.9609375
vt 0.5 -0.3984375
vt 0.4882813 -0.9609375
vt 0.5 -0.3984375
vt 0.4882813 -0.9609375
vt 0.515625 -0.9609375
vt 0.515625 -0.9609375
vt 0.5 -0.3984375
vt 0.4882813 -0.9609375
vt 0.5 -0.3984375
vt 0.4882813 -0.9609375
vt 0.515625 -0.9609375
vt 0.4882813 -0.9609375
vt 0.515625 -0.9609375
vt 0.5 -0.3984375
vt 0.515625 -0.9609375
vt 0.5 -0.3984375
vt 0.4882813 -0.9609375
f 257/257/257 258/258/258 259/259/259
f 260/260/260 261/261/261 262/262/262
f 263/263/263 264/264/264 265/265/265
f 266/266/266 267/267/267 268/268/268
f 269/269/269 270/270/270 271/271/271
f 272/272/272 273/273/273 274/274/274
f 275/275/275 276/276/276 277/277/277
f 278/278/278 279/279/279 280/280/280
g polygon10
usemtl mt_okl04
v 17 27.63672 24.5
v 15 27.63672 24.5
v 17 14.63672 24.5
v 15 11.63672 24.5
v 26 14.63672 24.5
v 27 11.63672 24.5
v 26 27.63672 24.5
v 27 27.63672 24.5
vn 0 0 0.9980469
vn 0 0 0.9980469
vn 0 0 0.9980469
vn 0 0 0.9980469
vn 0 0 0.9980469
vn 0 0 0.9980469
vn 0 0 0.9980469
vn 0 0 0.9980469
vt 0.5703125 -0.96875
vt 0.5742188 -0.96875
vt 0.5703125 -0.9414063
vt 0.5742188 -0.9335938
vt 0.5546875 -0.9414063
vt 0.5507813 -0.9335938
vt 0.5546875 -0.96875
vt 0.5507813 -0.96875
f 281/281/281 282/282/282 283/283/283
f 282/282/282 284/284/284 283/283/283
f 283/283/283 284/284/284 285/285/285
f 284/284/284 286/286/286 285/285/285
f 285/285/285 286/286/286 287/287/287
f 286/286/286 288/288/288 287/287/287
v -15 27.63672 24.5
v -17 27.63672 24.5
v -15 11.63672 24.5
v -17 14.63672 24.5
v -27 11.63672 24.5
v -26 14.63672 24.5
v -27 27.63672 24.5
v -26 27.63672 24.5
vn 0 0 0.9980469
vn 0 0 0.9980469
vn 0 0 0.9980469
vn 0 0 0.9980469
vn 0 0 0.9980469
vn 0 0 0.9980469
vn 0 0 0.9980469
vn 0 0 0.9980469
vt 0.5742188 -0.96875
vt 0.5703125 -0.96875
vt 0.5742188 -0.9335938
vt 0.5703125 -0.9414063
vt 0.5507813 -0.9335938
vt 0.5546875 -0.9414063
vt 0.5507813 -0.96875
vt 0.5546875 -0.96875
f 289/289/289 290/290/290 291/291/291
f 290/290/290 292/292/292 291/291/291
f 291/291/291 292/292/292 293/293/293
f 292/292/292 294/294/294 293/293/293
f 293/293/293 294/294/294 295/295/295
f 294/294/294 296/296/296 295/295/295
v -37 27.63672 24.5
v -39 27.63672 24.5
v -37 14.63672 24.5
v -39 11.63672 24.5
v -28 14.63672 24.5
v -27 11.63672 24.5
v -28 27.63672 24.5
v -27 27.63672 24.5
vn 0 0 0.9980469
vn 0 0 0.9980469
vn 0 0 0.9980469
vn 0 0 0.9980469
vn 0 0 0.9980469
vn 0 0 0.9980469
vn 0 0 0.9980469
vn 0 0 0.9980469
vt 0.5703125 -0.96875
vt 0.5742188 -0.96875
vt 0.5703125 -0.9414063
vt 0.5742188 -0.9335938
vt 0.5546875 -0.9414063
vt 0.5507813 -0.9335938
vt 0.5546875 -0.96875
vt 0.5507813 -0.96875
f 297/297/297 298/298/298 299/299/299
f 298/298/298 300/300/300 299/299/299
f 299/299/299 300/300/300 301/301/301
f 300/300/300 302/302/302 301/301/301
f 301/301/301 302/302/302 303/303/303
f 302/302/302 304/304/304 303/303/303
v 28 27.63672 24.5
v 27 27.63672 24.5
v 28 14.63672 24.5
v 27 11.63672 24.5
v 37 14.63672 24.5
v 39 11.63672 24.5
v 37 27.63672 24.5
v 39 27.63672 24.5
vn 0 0 0.9980469
vn 0 0 0.9980469
vn 0 0 0.9980469
vn 0 0 0.9980469
vn 0 0 0.9980469
vn 0 0 0.9980469
vn 0 0 0.9980469
vn 0 0 0.9980469
vt 0.5546875 -0.96875
vt 0.5507813 -0.96875
vt 0.5546875 -0.9414063
vt 0.5507813 -0.9335938
vt 0.5703125 -0.9414063
vt 0.5742188 -0.9335938
vt 0.5703125 -0.96875
vt 0.5742188 -0.96875
f 305/305/305 306/306/306 307/307/307
f 306/306/306 308/308/308 307/307/307
f 307/307/307 308/308/308 309/309/309
f 308/308/308 310/310/310 309/309/309
f 309/309/309 310/310/310 311/311/311
f 310/310/310 312/312/312 311/311/311
v 54 52 25
v 54 64 25
v 52 64 27
v 52 52 27
v -54 52 -30
v -54 52 25
v -54 64 25
v -54 64 -30
v -54 64 -30
v -54 64 25
v -48 64 21
v -48 64 -26
v 52 64 -32
v -52 64 -32
v -48 64 -26
v 48 64 -26
v -48 56 -26
v 48 56 -26
v 48 64 -26
v -48 64 -26
v -48 56 21
v -48 56 -26
v -48 64 -26
v -48 64 21
v 48 56 -26
v 48 56 21
v 48 64 21
v 48 64 -26
v 54 52 25
v 54 52 -30
v 54 64 -30
v 54 64 25
v 52 52 27
v 52 64 27
v -52 64 27
v -52 52 27
v 54 64 -30
v 48 64 -26
v 48 64 21
v 54 64 25
v -52 64 27
v 52 64 27
v 48 64 21
v -48 64 21
v -54 64 25
v -54 52 25
v -52 52 27
v -52 64 27
v 12.00391 2 23
v 12.00391 8 23
v 10 8 23
v 10 2 23
v -12.00391 2 23
v -12.00391 8 23
v -42 8 23
v -42 2 23
v -42 2 23
v -42 8 23
v -44 8 23
v -44 2 23
v 42 2 23
v 42 8 23
v 12.00391 8 23
v 12.00391 2 23
v -44 40 23
v -52 40 23
v -52 8 23
v -44 8 23
v 52 40 23
v 44 40 23
v 44 8 23
v 52 8 23
v 52 8 -20
v 52 2 -20
v 52 2 -28
v 52 8 -28
v -52 8 -20
v -52 2 -20
v -52 2 15
v -52 8 15
v 44 8 23
v 42 8 23
v 42 2 23
v 44 2 23
v -44 8 23
v -52 8 23
v -52 2 23
v -44 2 23
v 52 8 23
v 44 8 23
v 44 2 23
v 52 2 23
v -10 8 23
v -12.00391 8 23
v -12.00391 2 23
v -10 2 23
v 52 2 15
v 52 2 -20
v 52 8 -20
v 52 8 15
v -52 2 15
v -52 2 23
v -52 8 23
v -52 8 15
v -52 2 -28
v -52 2 -20
v -52 8 -20
v -52 8 -28
v 52 2 23
v 52 2 15
v 52 8 15
v 52 8 23
vn 0.7070313 0 0.7070313
vn 0.7070313 0 0.7070313
vn 0.7070313 0 0.7070313
vn 0.7070313 0 0.7070313
vn -1 0 0
vn -1 0 0
vn -1 0 0
vn -1 0 0
vn 0 0.9980469 0
vn 0 0.9980469 0
vn 0 0.9980469 0
vn 0 0.9980469 0
vn 0 0.9980469 0
vn 0 0.9980469 0
vn 0 0.9980469 0
vn 0 0.9980469 0
vn 0 0 0.9980469
vn 0 0 0.9980469
vn 0 0 0.9980469
vn 0 0 0.9980469
vn 0.9980469 0 0
vn 0.9980469 0 0
vn 0.9980469 0 0
vn 0.9980469 0 0
vn -1 0 0
vn -1 0 0
vn -1 0 0
vn -1 0 0
vn 0.9980469 0 0
vn 0.9980469 0 0
vn 0.9980469 0 0
vn 0.9980469 0 0
vn 0 0 0.9980469
vn 0 0 0.9980469
vn 0 0 0.9980469
vn 0 0 0.9980469
vn 0 0.9980469 0
vn 0 0.9980469 0
vn 0 0.9980469 0
vn 0 0.9980469 0
vn 0 0.9980469 0
vn 0 0.9980469 0
vn 0 0.9980469 0
vn 0 0.9980469 0
vn -0.7070313 0 0.7070313
vn -0.7070313 0 0.7070313
vn -0.7070313 0 0.7070313
vn -0.7070313 0 0.7070313
vn 0 0 0.9980469
vn 0 0 0.9980469
vn 0 0 0.9980469
vn 0 0 0.9980469
vn 0 0 0.9980469
vn 0 0 0.9980469
vn 0 0 0.9980469
vn 0 0 0.9980469
vn 0 0 0.9980469
vn 0 0 0.9980469
vn 0 0 0.9980469
vn 0 0 0.9980469
vn 0 0 0.9980469
vn 0 0 0.9980469
vn 0 0 0.9980469
vn 0 0 0.9980469
vn 0 0 0.9980469
vn 0 0 0.9980469
vn 0 0 0.9980469
vn 0 0 0.9980469
vn 0 0 0.9980469
vn 0 0 0.9980469
vn 0 0 0.9980469
vn 0 0 0.9980469
vn 0.9980469 0 0
vn 0.9980469 0 0
vn 0.9980469 0 0
vn 0.9980469 0 0
vn -1 0 0
vn -1 0 0
vn -1 0 0
vn -1 0 0
vn 0 0 0.9980469
vn 0 0 0.9980469
vn 0 0 0.9980469
vn 0 0 0.9980469
vn 0 0 0.9980469
vn 0 0 0.9980469
vn 0 0 0.9980469
vn 0 0 0.9980469
vn 0 0 0.9980469
vn 0 0 0.9980469
vn 0 0 0.9980469
vn 0 0 0.9980469
vn 0 0 0.9980469
vn 0 0 0.9980469
vn 0 0 0.9980469
vn 0 0 0.9980469
vn 0.9980469 0 0
vn 0.9980469 0 0
vn 0.9980469 0 0
vn 0.9980469 0 0
vn -1 0 0
vn -1 0 0
vn -1 0 0
vn -1 0 0
vn -1 0 0
vn -1 0 0
vn -1 0 0
vn -1 0 0
vn 0.9980469 0 0
vn 0.9980469 0 0
vn 0.9980469 0 0
vn 0.9980469 0 0
vt 0.8476563 0.03125
vt 0.8476563 0.15625
vt 0.8476563 0.15625
vt 0.8476563 0.03125
vt 0.96875 0.2226563
vt 0.96875 0.2148438
vt 0.84375 0.2148438
vt 0.84375 0.2226563
vt 0.65625 -0.8632813
vt 0.65625 -0.9453125
vt 0.7851563 -0.9453125
vt 0.7851563 -0.8671875
vt 0.65625 -0.8671875
vt 0.65625 -0.9492188
vt 0.7851563 -0.9453125
vt 0.7851563 -0.8671875
vt 0.84375 -0.8632813
vt 0.8515625 -0.8632813
vt 0.8515625 -0.9101563
vt 0.84375 -0.9101563
vt 0.9023438 -0.8632813
vt 0.9101563 -0.8632813
vt 0.9101563 -0.9101563
vt 0.9023438 -0.9101563
vt 0.9101563 -0.8632813
vt 0.9023438 -0.8632813
vt 0.9023438 -0.9101563
vt 0.9101563 -0.9101563
vt 0.96875 0.2148438
vt 0.96875 0.2226563
vt 0.84375 0.2226563
vt 0.84375 0.2148438
vt 0.9414063 -0.96875
vt 0.9414063 -0.84375
vt 0.8710938 -0.84375
vt 0.8710938 -0.96875
vt 0.65625 -0.953125
vt 0.7851563 -0.9453125
vt 0.7851563 -0.8671875
vt 0.65625 -0.8671875
vt 0.65625 -0.8632813
vt 0.65625 -0.953125
vt 0.7851563 -0.9453125
vt 0.7851563 -0.8671875
vt 0.8476563 0.15625
vt 0.8476563 0.03125
vt 0.8476563 0.03125
vt 0.8476563 0.15625
vt 0.7226563 -0.59375
vt 0.7226563 -0.21875
vt 0.7148438 -0.21875
vt 0.7148438 -0.59375
vt 0.7773438 -0.59375
vt 0.7773438 -0.21875
vt 0.7851563 -0.21875
vt 0.7851563 -0.59375
vt 0.84375 -0.59375
vt 0.84375 -0.21875
vt 0.8476563 -0.21875
vt 0.8476563 -0.59375
vt 0.7851563 -0.59375
vt 0.7851563 -0.21875
vt 0.7773438 -0.21875
vt 0.7773438 -0.59375
vt 0.46875 0.00390625
vt 0.03125 0.00390625
vt 0.03125 -2
vt 0.46875 -2
vt 0.03125 0.00390625
vt 0.46875 0.00390625
vt 0.46875 -2
vt 0.03125 -2
vt 0.8476563 -0.21875
vt 0.8476563 -0.59375
vt 0.84375 -0.59375
vt 0.84375 -0.21875
vt 0.65625 -0.21875
vt 0.65625 -0.59375
vt 0.65625 -0.59375
vt 0.65625 -0.21875
vt 0.8476563 -0.21875
vt 0.84375 -0.21875
vt 0.84375 -0.59375
vt 0.8476563 -0.59375
vt 0.9296875 -0.21875
vt 0.9648438 -0.21875
vt 0.9648438 -0.59375
vt 0.9296875 -0.59375
vt 0.9648438 -0.21875
vt 0.9296875 -0.21875
vt 0.9296875 -0.59375
vt 0.9648438 -0.59375
vt 0.7148438 -0.21875
vt 0.7226563 -0.21875
vt 0.7226563 -0.59375
vt 0.7148438 -0.59375
vt 0.65625 -0.59375
vt 0.65625 -0.59375
vt 0.65625 -0.21875
vt 0.65625 -0.21875
vt 0.8476563 -0.59375
vt 0.84375 -0.59375
vt 0.84375 -0.21875
vt 0.8476563 -0.21875
vt 0.84375 -0.59375
vt 0.8476563 -0.59375
vt 0.8476563 -0.21875
vt 0.84375 -0.21875
vt 0.84375 -0.59375
vt 0.8476563 -0.59375
vt 0.8476563 -0.21875
vt 0.84375 -0.21875
f 313/313/313 314/314/314 315/315/315 316/316/316
f 317/317/317 318/318/318 319/319/319 320/320/320
f 321/321/321 322/322/322 323/323/323 324/324/324
f 325/325/325 326/326/326 327/327/327 328/328/328
f 329/329/329 330/330/330 331/331/331 332/332/332
f 333/333/333 334/334/334 335/335/335 336/336/336
f 337/337/337 338/338/338 339/339/339 340/340/340
f 341/341/341 342/342/342 343/343/343 344/344/344
f 345/345/345 346/346/346 347/347/347 348/348/348
f 349/349/349 350/350/350 351/351/351 352/352/352
f 353/353/353 354/354/354 355/355/355 356/356/356
f 357/357/357 358/358/358 359/359/359 360/360/360
f 361/361/361 362/362/362 363/363/363 364/364/364
f 365/365/365 366/366/366 367/367/367 368/368/368
f 369/369/369 370/370/370 371/371/371 372/372/372
f 373/373/373 374/374/374 375/375/375 376/376/376
f 377/377/377 378/378/378 379/379/379 380/380/380
f 381/381/381 382/382/382 383/383/383 384/384/384
f 385/385/385 386/386/386 387/387/387 388/388/388
f 389/389/389 390/390/390 391/391/391 392/392/392
f 393/393/393 394/394/394 395/395/395 396/396/396
f 397/397/397 398/398/398 399/399/399 400/400/400
f 401/401/401 402/402/402 403/403/403 404/404/404
f 405/405/405 406/406/406 407/407/407 408/408/408
f 409/409/409 410/410/410 411/411/411 412/412/412
f 413/413/413 414/414/414 415/415/415 416/416/416
f 417/417/417 418/418/418 419/419/419 420/420/420
f 421/421/421 422/422/422 423/423/423 424/424/424
v 54 64 -30
v 52 64 -32
v 48 64 -26
v 52 64 27
v 54 64 25
v 48 64 21
v -54 64 25
v -52 64 27
v -48 64 21
v -52 64 -32
v -54 64 -30
v -48 64 -26
vn 0 0.9980469 0
vn 0 0.9980469 0
vn 0 0.9980469 0
vn 0 0.9980469 0
vn 0 0.9980469 0
vn 0 0.9980469 0
vn 0 0.9980469 0
vn 0 0.9980469 0
vn 0 0.9980469 0
vn 0 0.9980469 0
vn 0 0.9980469 0
vn 0 0.9980469 0
vt 0.65625 -0.8632813
vt 0.65625 -0.8671875
vt 0.7851563 -0.8671875
vt 0.65625 -0.8632813
vt 0.65625 -0.8671875
vt 0.7851563 -0.8671875
vt 0.65625 -0.9453125
vt 0.65625 -0.953125
vt 0.7851563 -0.9453125
vt 0.65625 -0.9492188
vt 0.65625 -0.953125
vt 0.7851563 -0.9453125
f 425/425/425 426/426/426 427/427/427
f 428/428/428 429/429/429 430/430/430
f 431/431/431 432/432/432 433/433/433
f 434/434/434 435/435/435 436/436/436
